<?xml version="1.0" encoding="UTF-8" standalone="no"?>
<!DOCTYPE svg PUBLIC "-//W3C//DTD SVG 1.1//EN" "http://www.w3.org/Graphics/SVG/1.1/DTD/svg11.dtd">
<svg width="100%" height="100%" viewBox="0 0 52 44" version="1.1" xmlns="http://www.w3.org/2000/svg" xmlns:xlink="http://www.w3.org/1999/xlink" xml:space="preserve" xmlns:serif="http://www.serif.com/" style="fill-rule:evenodd;clip-rule:evenodd;stroke-linejoin:round;stroke-miterlimit:2;">
    <g transform="matrix(1,0,0,1,-19.1572,-8.79502)">
        <g transform="matrix(4.18764,0,0,4.83533,-225.881,-418.229)">
            <text x="57.94px" y="97.048px" style="font-family:'AppleSymbols', 'Apple Symbols';font-size:21.389px;fill:rgb(62,191,27);">s</text>
        </g>
        <g transform="matrix(4.82417,0,0,4.83533,-262.762,-418.229)">
            <path d="M62.843,94.779L62.963,95.378C63.088,95.729 63.248,96.03 63.457,96.27L63.33,96.479C62.843,97.011 62.132,97.278 61.195,97.278C60.603,97.278 60.111,97.177 59.722,96.975C59.332,96.773 59.021,96.492 58.788,96.134C58.555,95.775 58.439,95.359 58.439,94.886L58.439,94.865L59.636,94.865L59.636,94.886C59.636,95.248 59.755,95.546 59.994,95.779C60.232,96.012 60.633,96.129 61.195,96.129C61.684,96.129 62.083,95.989 62.392,95.711C62.686,95.445 62.84,95.134 62.843,94.779Z" style="fill:none;"/>
        </g>
        <g transform="matrix(4.82417,0,0,4.83533,-262.762,-418.229)">
            <path d="M62.805,94.59C62.792,94.152 62.493,93.842 61.947,93.654L60.932,93.288L60.107,92.996C59.158,92.592 58.684,91.927 58.684,91.001C58.684,90.346 58.913,89.772 59.373,89.278C59.832,88.783 60.512,88.536 61.412,88.536C62.307,88.536 62.943,88.747 63.321,89.168L63.43,89.339L63.425,89.344C63.144,89.715 62.99,90.089 62.964,90.466L62.959,90.541L63.859,90.604L62.682,90.604L62.682,90.573C62.682,90.294 62.561,90.076 62.319,89.92C62.077,89.763 61.754,89.685 61.349,89.685C60.871,89.685 60.504,89.8 60.247,90.03C59.991,90.259 59.862,90.541 59.862,90.875C59.862,91.133 59.945,91.342 60.111,91.502C60.278,91.662 60.557,91.808 60.95,91.941L61.521,92.129L61.947,92.264L62.771,92.573L62.749,92.888C62.704,93.543 62.714,94.111 62.805,94.59Z" style="fill:none;"/>
        </g>
        <g transform="matrix(-89.5459,-6.26329,7.36596,-105.799,74.7071,11.3377)">
            <path d="M0.348,-0.043C0.334,-0.026 0.316,-0.012 0.294,-0.003C0.271,0.006 0.246,0.011 0.217,0.011C0.158,0.011 0.112,-0.008 0.08,-0.046C0.048,-0.084 0.032,-0.133 0.032,-0.191C0.032,-0.25 0.049,-0.3 0.083,-0.339C0.117,-0.378 0.16,-0.398 0.214,-0.398C0.243,-0.398 0.27,-0.392 0.294,-0.379L0.32,-0.359L0.301,-0.326L0.297,-0.292L0.296,-0.294C0.288,-0.311 0.276,-0.324 0.26,-0.332C0.245,-0.34 0.227,-0.344 0.207,-0.344C0.183,-0.344 0.161,-0.335 0.14,-0.315C0.12,-0.296 0.107,-0.269 0.1,-0.234L0.309,-0.234L0.332,-0.209C0.34,-0.203 0.349,-0.199 0.357,-0.196L0.371,-0.193L0.096,-0.186C0.096,-0.144 0.107,-0.11 0.13,-0.083C0.152,-0.056 0.183,-0.043 0.222,-0.043C0.25,-0.043 0.271,-0.048 0.284,-0.059C0.298,-0.07 0.304,-0.083 0.304,-0.096L0.304,-0.1L0.32,-0.1L0.319,-0.1L0.319,-0.098C0.32,-0.078 0.33,-0.059 0.348,-0.043Z" style="fill:rgb(62,191,27);"/>
        </g>
    </g>
</svg>
